<svg width="150" height="54" viewBox="0 0 150 54" fill="none" xmlns="http://www.w3.org/2000/svg">
<path d="M86.2879 0.780013L90.3646 4.02511L86.0768 7.27L82 4.0249L86.2879 0.780013Z" fill="#0B0A07"/>
<path d="M99.2879 0.780013L103.365 4.02511L99.0768 7.27L95 4.0249L99.2879 0.780013Z" fill="#0B0A07"/>
<path d="M137.687 26.18H146.747V32.18H137.687V44.48H149.087V50.48H131.087V8.47998H149.087V14.48H137.687V26.18Z" fill="#0B0A07"/>
<path d="M116.672 8.47998C120.112 8.47998 122.592 9.27998 124.112 10.88C125.672 12.48 126.452 14.9 126.452 18.14V19.64C126.452 21.8 126.112 23.58 125.432 24.98C124.752 26.38 123.672 27.42 122.192 28.1C123.992 28.78 125.252 29.9 125.972 31.46C126.732 32.98 127.112 34.86 127.112 37.1V40.52C127.112 43.76 126.272 46.24 124.592 47.96C122.912 49.64 120.412 50.48 117.092 50.48H106.712V8.47998H116.672ZM113.312 31.58V44.48H117.092C118.212 44.48 119.052 44.18 119.612 43.58C120.212 42.98 120.512 41.9 120.512 40.34V36.68C120.512 34.72 120.172 33.38 119.492 32.66C118.852 31.94 117.772 31.58 116.252 31.58H113.312ZM113.312 14.48V25.58H115.892C117.132 25.58 118.092 25.26 118.772 24.62C119.492 23.98 119.852 22.82 119.852 21.14V18.8C119.852 17.28 119.572 16.18 119.012 15.5C118.492 14.82 117.652 14.48 116.492 14.48H113.312Z" fill="#0B0A07"/>
<path d="M89.1056 8.47998V40.88C89.1056 42.4 89.4056 43.46 90.0056 44.06C90.6456 44.66 91.4856 44.96 92.5256 44.96C93.5656 44.96 94.3856 44.66 94.9856 44.06C95.6256 43.46 95.9456 42.4 95.9456 40.88V8.47998H102.186L102 40.5C102 43.9 101.346 46.48 99.6656 48.32C98.0256 50.12 95.5856 51.02 92.3456 51.02C89.1056 51.02 86.6456 50.12 84.9656 48.32C83.3256 46.48 82.5056 43.86 82.5056 40.46V8.47998H89.1056Z" fill="#0B0A07"/>
<path d="M78.8011 34.82V40.4C78.8011 43.8 77.9611 46.42 76.2811 48.26C74.6411 50.06 72.2011 50.96 68.9611 50.96C65.7211 50.96 63.2611 50.06 61.5811 48.26C59.9411 46.42 59.1211 43.8 59.1211 40.4V18.56C59.1211 15.16 59.9411 12.56 61.5811 10.76C63.2611 8.92 65.7211 8 68.9611 8C72.2011 8 74.6411 8.92 76.2811 10.76C77.9611 12.56 78.8011 15.16 78.8011 18.56V22.64H72.5611V18.14C72.5611 16.62 72.2411 15.56 71.6011 14.96C71.0011 14.32 70.1811 14 69.1411 14C68.1011 14 67.2611 14.32 66.6211 14.96C66.0211 15.56 65.7211 16.62 65.7211 18.14V40.82C65.7211 42.34 66.0211 43.4 66.6211 44C67.2611 44.6 68.1011 44.9 69.1411 44.9C70.1811 44.9 71.0011 44.6 71.6011 44C72.2411 43.4 72.5611 42.34 72.5611 40.82V34.82H78.8011Z" fill="#0B0A07"/>
<path d="M48.2354 8.47998H54.8354V50.48H48.2354V8.47998Z" fill="#0B0A07"/>
<path d="M30.42 8.50015V40.9002C30.42 42.4202 30.72 43.4802 31.32 44.0802C31.96 44.6802 32.8 44.9802 33.84 44.9802C34.88 44.9802 35.7 44.6802 36.3 44.0802C36.94 43.4802 37.26 42.4202 37.26 40.9002V8.50015H43.5V40.4802C43.5 43.8802 42.66 46.5002 40.98 48.3402C39.34 50.1402 36.9 51.0402 33.66 51.0402C30.42 51.0402 27.96 50.1402 26.28 48.3402C24.64 46.5002 23.82 43.8802 23.82 40.4802V8.50015H30.42Z" fill="#0B0A07"/>
<path d="M0 18.56C0 15.16 0.86 12.56 2.58 10.76C4.3 8.92 6.78 8 10.02 8C13.26 8 15.74 8.92 17.46 10.76C19.18 12.56 20.04 15.16 20.04 18.56V40.4C20.04 42.76 19.62 44.72 18.78 46.28C18.94 46.68 19.14 46.94 19.38 47.06C19.66 47.14 20.08 47.18 20.64 47.18H21.24V53.06H20.34C18.86 53.06 17.64 52.8 16.68 52.28C15.76 51.8 15.08 51.1 14.64 50.18C13.96 50.42 13.24 50.6 12.48 50.72C11.72 50.88 10.9 50.96 10.02 50.96C6.78 50.96 4.3 50.06 2.58 48.26C0.86 46.42 0 43.8 0 40.4V18.56ZM6.6 40.82C6.6 42.34 6.9 43.42 7.5 44.06C8.14 44.66 8.98 44.96 10.02 44.96C11.06 44.96 11.88 44.66 12.48 44.06C13.12 43.42 13.44 42.34 13.44 40.82V18.14C13.44 16.62 13.12 15.56 12.48 14.96C11.88 14.32 11.06 14 10.02 14C8.98 14 8.14 14.32 7.5 14.96C6.9 15.56 6.6 16.62 6.6 18.14V40.82Z" fill="#0B0A07"/>
</svg>
